<svg xmlns="http://www.w3.org/2000/svg" width="737" height="794" fill="none" viewBox="0 0 737 794"><path fill="#c7e23b" d="M338.543 586.969c-25.73 16.373-59.955 9.555-76.294-15.199a54.295 54.295 0 0 1-8.423-21.633 197.5 197.5 0 0 1-31.495-4.64 194.8 194.8 0 0 1-39.39-13.662c-2.17 27.013 4.419 53.809 19.194 77.028q.58.91 1.175 1.812c37.435 56.715 115.109 72.809 173.148 35.875l47.436-30.187-37.915-59.581zM576.2 373.381q-.55-.895-1.113-1.78c-17.797-27.967-45.23-47.396-77.553-54.863-13.966-3.226-28.092-4.019-41.911-2.515 2.29 27.459 2.105 50.788-.626 71.799 8.599-2.343 17.696-2.541 26.642-.474 14.093 3.256 26.078 11.723 33.839 23.921q.261.41.517.827c15.504 25.285 7.184 59.177-18.545 75.55l-47.436 30.186 37.915 59.581 47.436-30.186c58.039-36.933 76.357-114.114 40.835-172.046"/><path fill="#000" d="M659.581 483.588c12.064-50.826 3.833-103.076-23.175-147.123a198.25 198.25 0 0 0-21.022-28.28 203 203 0 0 0 3.255-12.002c12.064-50.826 3.833-103.075-23.175-147.122a197 197 0 0 0-1.748-2.798l-.002-.002c-27.547-43.286-70.16-73.465-119.987-84.976-51.587-11.916-104.805-2.691-149.851 25.975q-.036.025-.073.048L163.72 189.18c-43.663 27.785-74.312 70.906-86.301 121.42-12.064 50.826-3.833 103.076 23.176 147.124q.862 1.407 1.76 2.817a197 197 0 0 0 18.039 24.068 200 200 0 0 0-4.145 16.069c-10.799 50.588-1.458 102.473 26.305 146.1.596.936 1.203 1.873 1.815 2.801 28.463 43.122 72.309 72.707 123.461 83.305 50.837 10.533 102.881 1.032 146.543-26.753l38.498-24.499 22.33-14.21 59.582-37.915 38.498-24.499c43.662-27.785 74.311-70.906 86.3-121.42M376.458 646.55c-58.039 36.934-135.713 20.84-173.148-35.875q-.596-.902-1.175-1.812c-14.775-23.219-21.364-50.015-19.194-77.028a194.8 194.8 0 0 0 39.39 13.662 197.5 197.5 0 0 0 31.495 4.64 54.3 54.3 0 0 0 8.423 21.633c16.339 24.754 50.564 31.572 76.294 15.199l47.436-30.187 37.915 59.581zm111.471-70.937-37.915-59.581 47.436-30.186c25.729-16.373 34.049-50.265 18.545-75.55q-.255-.416-.517-.827c-7.761-12.198-19.746-20.665-33.839-23.921-8.946-2.067-18.043-1.869-26.642.474 2.731-21.011 2.916-44.34.626-71.799 13.819-1.504 27.945-.711 41.911 2.515 32.323 7.467 59.756 26.896 77.553 54.863q.563.885 1.113 1.78c35.522 57.932 17.204 135.112-40.835 172.046zM201.635 248.761l39.053-24.852c-2.78 23.805-2.402 50.584 1.112 83.002l-2.25 1.431c-25.729 16.373-34.048 50.265-18.544 75.55q.272.446.551.885c7.526 11.827 19.069 19.983 32.564 23.1 14.39 3.325 29.388.655 42.229-7.517 11.564-7.359 25.956-16.517 16.63-92.676-8.85-72.268-3.936-127.277 48.811-160.843 28.944-18.419 63.052-24.366 96.039-16.746 31.742 7.333 58.753 26.504 76.304 54.083.38.597.753 1.194 1.124 1.799 14.326 23.364 19.883 49.857 17.621 75.579a197.4 197.4 0 0 0-39.448-13.628 199 199 0 0 0-31.09-4.632 52.76 52.76 0 0 0-7.759-21.158c-7.538-11.844-19.101-20.104-32.647-23.232-14.39-3.325-29.387-.655-42.228 7.516-11.564 7.359-25.955 16.517-16.629 92.678 8.849 72.266 3.935 127.274-48.812 160.841-28.945 18.419-63.053 24.366-96.04 16.746-31.732-7.33-58.747-26.495-76.29-54.061-.384-.604-.761-1.207-1.136-1.819-35.523-57.932-17.204-135.112 40.835-172.046"/><path fill="#2980c2" d="M161.936 422.626c17.543 27.566 44.558 46.731 76.29 54.061 32.987 7.62 67.095 1.673 96.04-16.746 52.747-33.566 57.661-88.574 48.812-160.841-9.326-76.161 5.065-85.319 16.628-92.678 12.842-8.171 27.839-10.841 42.229-7.516 13.546 3.128 25.109 11.388 32.647 23.232q.237.375.471.754a52.8 52.8 0 0 1 7.288 20.404 199 199 0 0 1 31.09 4.632 197.4 197.4 0 0 1 39.448 13.628c2.262-25.722-3.295-52.215-17.621-75.579-.371-.605-.744-1.202-1.124-1.799-17.551-27.579-44.562-46.75-76.304-54.083-32.987-7.62-67.095-1.673-96.039 16.746-52.746 33.566-57.661 88.575-48.811 160.843 9.326 76.159-5.066 85.317-16.63 92.676-12.841 8.172-27.839 10.842-42.229 7.517-13.495-3.117-25.038-11.273-32.564-23.1q-.28-.439-.551-.885c-15.504-25.285-7.185-59.177 18.544-75.55l2.25-1.431c-3.514-32.418-3.892-59.197-1.112-83.002l-39.053 24.852c-58.039 36.934-76.358 114.114-40.835 172.046.375.612.752 1.215 1.136 1.819"/></svg>